<svg id="Layer_1" data-name="Layer 1" xmlns="http://www.w3.org/2000/svg" viewBox="0 0 197.43 54"><defs><style>.cls-1{fill:#a5a5a5;}.cls-2{fill:#434343;}.cls-3{fill:#fff;}</style></defs><title>logo_gray</title><path class="cls-1" d="M33.21.61A25.5,25.5,0,0,0,8.46,21.24a5.48,5.48,0,0,1,1-.1,8.53,8.53,0,0,1,1.3.11A23.18,23.18,0,0,1,33.21,3c12.69,0,23,10.59,23,23.6s-10.32,23.6-23,23.6A23.15,23.15,0,0,1,11,32.59a16.69,16.69,0,0,0-2.42-.28A25.48,25.48,0,0,0,33.21,52.5c13.95,0,25.3-11.64,25.3-25.94S47.16.61,33.21.61Z"/><path class="cls-2" d="M21.7,38.74c-.57-1.08-2.94-3.19-6.24-4.7a19.79,19.79,0,0,0,3.8,6,4.31,4.31,0,0,1,1.94,0c.3.06.62.15.94.25A5.72,5.72,0,0,0,21.7,38.74Z"/><path class="cls-2" d="M14.68,21.4q-.13.5-.24,1l.69.33.47.25A5.66,5.66,0,0,1,14.68,21.4Z"/><path class="cls-2" d="M46.14,31.06a11.15,11.15,0,0,0-1.78-2.88C42.9,26.76,40,25.59,38.26,25c-.55-.17-1-.3-1.26-.42a19.17,19.17,0,0,1,2.5,1.74A3.45,3.45,0,0,1,40.63,28a2.42,2.42,0,0,1,.08.74,2.45,2.45,0,0,0-.2-.69,3.11,3.11,0,0,0-1.29-1.31,18,18,0,0,0-2.47-1.14A18.23,18.23,0,0,1,33.63,24a8.94,8.94,0,0,1-1.55-1.28A7.58,7.58,0,0,1,30.83,21a8.42,8.42,0,0,1-.73-2.09,10.39,10.39,0,0,1-.22-2.16A8.51,8.51,0,0,1,33.39,9.9,9.17,9.17,0,0,1,37,8.35a9.75,9.75,0,0,1,3.34-.08,18.71,18.71,0,0,0-7.09-1.39A19.2,19.2,0,0,0,15.56,18.82a2.23,2.23,0,0,1,.87-.17c1.68,0,3.86,1.45,5.82,3.89,2.28,2.83,4.65,8,1.4,15.1-.39.85-1.06,2.2-1.34,2.76a47.19,47.19,0,0,0,5,1.6,29.72,29.72,0,0,0,7.54.75,18.08,18.08,0,0,0,6.22-1.29,11.81,11.81,0,0,0,2.47-1.36,8.21,8.21,0,0,0,2.18-2.33,6.9,6.9,0,0,0,1-3.25A8,8,0,0,0,46.14,31.06Z"/><path class="cls-1" d="M47.86,39.28a20.06,20.06,0,0,0,.58-24.7l.06.12a3.37,3.37,0,0,0,.09,1l.06.25,0,.13s-.07,0-.1-.05l-.48-.27a26,26,0,0,0-2.57-1.23,3.27,3.27,0,0,0-1.39-.41.91.91,0,0,0-.49.12.94.94,0,0,1,.47-.21,2.5,2.5,0,0,1,1,.06,7.05,7.05,0,0,1,1.43.53l.22.12s0,0,0,0l-.09-.13-.18-.25c-.24-.32-.48-.62-.72-.88a7.31,7.31,0,0,0-.85-.81l-.38-.28-.18-.1-.2-.11A8.5,8.5,0,0,0,40.91,11a8,8,0,0,0-5.78,1.45,7,7,0,0,0-1.72,1.76,6.22,6.22,0,0,0-1,2.71,8.5,8.5,0,0,0,0,1.63,6.14,6.14,0,0,0,2.16,4.25,15.56,15.56,0,0,0,1.9,1.43A21.77,21.77,0,0,1,45,27.48a11.8,11.8,0,0,1,2.45,2.87,9.5,9.5,0,0,1,1.35,4.15A9,9,0,0,1,48,39Zm-6.8-25.79a2.47,2.47,0,0,1-1-.21,1.45,1.45,0,0,1,1-.6,1.45,1.45,0,0,1,1,.6C42,13.42,41.59,13.49,41.06,13.49Z"/><path class="cls-1" d="M34.84,45.36a27.53,27.53,0,0,1-7.92-1.87c-2.47-.94-4.33-2.34-5.85-2.93a4.14,4.14,0,0,0-1.68-.34,18.83,18.83,0,0,0,20.3,4.87A18.11,18.11,0,0,1,34.84,45.36Z"/><path class="cls-1" d="M22.94,37.34s1.2-7.43-5.63-13.67c-4.7-4.29-.46-6.58,4.35-.63C24.27,26.28,25.5,31,22.94,37.34Z"/><path class="cls-3" d="M22.94,37.34s1-5-.21-8.88c-1.15-3.67-3.8-5-2.83-4.58C22.07,24.9,24.62,29.82,22.94,37.34Z"/><path class="cls-2" d="M22.39,37.36S20.33,29.27,10.66,26.1C4,23.92,7.29,19.63,14.79,23.45,18.87,25.53,22.2,29.75,22.39,37.36Z"/><path class="cls-3" d="M22.39,37.36s-1.15-5.5-4.13-8.92c-2.79-3.2-6.07-3.36-4.89-3.34C16,25.14,20.78,29,22.39,37.36Z"/><path class="cls-1" d="M21.85,37.64S16.2,30.38,5,31.64c-7.72.87-6.26-5,3-4.61C13.06,27.25,18.3,30,21.85,37.64Z"/><path class="cls-3" d="M21.85,37.64s-3.59-5.05-8.12-7.14c-4.24-2-7.64-.59-6.44-1.12C10,28.18,16.51,29.85,21.85,37.64Z"/><path class="cls-1" d="M38.54,8l-.66-.47c-.21-.15-.46-.34-.73-.57l-.43-.38-.23-.23A2.15,2.15,0,0,1,36.22,6a.83.83,0,0,1-.13-.38.37.37,0,0,1,.2-.34,1,1,0,0,1,.42-.11h.48a10.87,10.87,0,0,1,1.5.3c.5.13,1,.28,1.52.44L41,6.2l.19.06h.09v-.1l.05-.25.07-.28a4.92,4.92,0,0,1,.41-1.09A2,2,0,0,1,42,4.3,1.24,1.24,0,0,1,42.28,4a.87.87,0,0,1,.86,0,1.55,1.55,0,0,1,.52.45,3.31,3.31,0,0,1,.27.41,9.62,9.62,0,0,1,.75,1.91c.1.35.2.72.29,1.1l.12.56a.89.89,0,0,0,0,.1h.12l.21-.06a2.65,2.65,0,0,1,.88-.08,2,2,0,0,1,.87.29,2.29,2.29,0,0,1,.64.61,4.29,4.29,0,0,1,.63,1.45,8.91,8.91,0,0,1,.22,1.37,15.3,15.3,0,0,1,0,2.88,16.12,16.12,0,0,0-.27-2.84A8.82,8.82,0,0,0,48,10.81a3.81,3.81,0,0,0-.66-1.22,1.42,1.42,0,0,0-1.11-.54,2,2,0,0,0-.64.12l-.16.06-.3.13-.64.32c-.08-.33-.16-.69-.26-1l-.16-.56c-.11-.36-.22-.71-.33-1a11.13,11.13,0,0,0-.71-1.69,2.6,2.6,0,0,0-.18-.29,1.55,1.55,0,0,0-.13-.15h0l0,0-.1.14a4.28,4.28,0,0,0-.36.85l-.08.25,0,.13,0,.16c-.08.32-.16.66-.23,1L40,6.64c-.48-.2-1-.39-1.44-.56a11,11,0,0,0-1.4-.42l-.13,0-.11,0a.73.73,0,0,0-.24,0,.16.16,0,0,0-.15.16.51.51,0,0,0,.07.22l.13.2.18.22c.13.15.26.28.38.41s.48.46.67.64Z"/><path class="cls-2" d="M74.39,26.68a28.33,28.33,0,0,0,9.09,1.56c3.77,0,5.76-1.08,5.76-2.72s-1.72-2.46-6.08-3.5c-6-1.49-10-3.8-10-7.45,0-4.28,5.22-7.52,13.72-7.52a29.46,29.46,0,0,1,9.26,1.27L94.3,12.86a23.27,23.27,0,0,0-7.53-1.19c-3.55,0-5.27,1.15-5.27,2.42,0,1.6,2,2.31,6.73,3.54,6.4,1.64,9.36,3.95,9.36,7.48C97.58,29.32,93,32.9,83,32.9a32.64,32.64,0,0,1-10.28-1.56Z"/><path class="cls-2" d="M127.18,26.68c0,2.38.11,4.32.22,5.85h-7.1L119.91,30h-.16c-1,1.12-3.5,3-8.23,3-5.38,0-9.26-2.31-9.26-7.93V14.31h8.18v9.79c0,2.64,1.24,4.25,4.14,4.25a4.51,4.51,0,0,0,4.09-2,2.23,2.23,0,0,0,.32-1.23V14.31h8.18Z"/><path class="cls-2" d="M133.2,6.09h8.18V16.47h.11c1.56-1.56,4.3-2.57,8-2.57,6.3,0,10.87,3.61,10.82,9.2,0,6.55-6,9.83-12,9.83-3.07,0-6.08-.78-7.91-2.94h-.11l-.32,2.53H133c.11-1.19.22-3.39.22-5.44Zm8.18,18.69a2.94,2.94,0,0,0,.16,1c.54,1.49,2.42,2.68,4.79,2.68,3.5,0,5.65-1.86,5.65-5.14,0-2.83-1.83-5.06-5.65-5.06-2.21,0-4.25,1.15-4.79,2.79a3.32,3.32,0,0,0-.16,1Z"/><path class="cls-2" d="M186.74,28.13a16.47,16.47,0,0,0,.43,4.39H179.8l-.48-1.82h-.16a11.75,11.75,0,0,1-7.53,2.23c-5.33,0-8.5-2.68-8.5-5.59,0-4.73,6.13-7,15.44-7v-.22c0-1-.75-2.38-4.79-2.38a20,20,0,0,0-7.26,1.38L165,15.51a29.62,29.62,0,0,1,10.22-1.64c8.77,0,11.52,3.58,11.52,7.9Zm-7.91-4.21c-4.31,0-7.64.71-7.64,2.87,0,1.45,1.4,2.16,3.23,2.16,2,0,3.71-.93,4.25-2.09a2.87,2.87,0,0,0,.16-1Z"/><path class="cls-1" d="M71.87,49.77V36h3l6.8,7a37.89,37.89,0,0,1,3.79,4.48l.1,0a39.83,39.83,0,0,1-.32-5.67V36h2.59V49.77H85.08l-6.76-7a39.65,39.65,0,0,1-3.95-4.6l-.09,0c.16,1.74.19,3.39.19,5.69v5.89Z"/><path class="cls-1" d="M105.53,47.05a23.09,23.09,0,0,0,.13,2.72h-2.46L103,48.15H103A6.65,6.65,0,0,1,97.92,50c-2.4,0-5.28-.88-5.28-4.34V39.87h2.78v5.46c0,1.88.92,3.17,3.41,3.17a4.28,4.28,0,0,0,3.67-1.66,1.72,1.72,0,0,0,.25-.92V39.87h2.78Z"/><path class="cls-1" d="M113.66,37.5v2.37h4v1.37h-4v5.34c0,1.23.54,1.92,2.09,1.92a8,8,0,0,0,1.61-.12l.13,1.37A11.35,11.35,0,0,1,115,50a5.28,5.28,0,0,1-3-.76,3,3,0,0,1-1.07-2.6v-5.4h-2.37V39.87h2.37V38Z"/><path class="cls-1" d="M120.93,43a30.43,30.43,0,0,0-.13-3.09h2.43l.13,2h.09a4.75,4.75,0,0,1,4.27-2.17c.29,0,.51,0,.76,0v1.7a6.62,6.62,0,0,0-.95,0c-2,0-3.35.94-3.73,2.29a3.51,3.51,0,0,0-.09.84v5.28h-2.78Z"/><path class="cls-1" d="M134.64,37.09c0,.61-.66,1.1-1.77,1.1s-1.68-.49-1.68-1.1.7-1.12,1.74-1.12S134.64,36.46,134.64,37.09Zm-3.1,12.68v-9.9h2.78v9.9Z"/><path class="cls-1" d="M140.65,45.15c.06,2.43,2.43,3.44,5.25,3.44a14.78,14.78,0,0,0,4.23-.51l.51,1.29a18.46,18.46,0,0,1-5.12.63c-4.71,0-7.52-2-7.52-5s2.72-5.32,7.17-5.32c5,0,6.32,2.82,6.32,4.64a2.94,2.94,0,0,1-.09.84Zm8.15-1.29c0-1.12-.73-2.9-3.85-2.9-2.85,0-4,1.66-4.27,2.9Z"/><path class="cls-1" d="M155.09,42.55a22.77,22.77,0,0,0-.13-2.68h2.47l.16,1.64h.06a6.63,6.63,0,0,1,5.06-1.84c2.12,0,5.4.82,5.4,4.21v5.89h-2.78V44.06c0-1.6-.92-2.93-3.54-2.93A4.13,4.13,0,0,0,158.06,43a1.75,1.75,0,0,0-.19.84v6h-2.78Z"/><path class="cls-1" d="M176,37.5v2.37h4v1.37h-4v5.34c0,1.23.54,1.92,2.09,1.92a8,8,0,0,0,1.61-.12l.13,1.37a11.35,11.35,0,0,1-2.47.25,5.28,5.28,0,0,1-3-.76,3,3,0,0,1-1.07-2.6v-5.4h-2.37V39.87h2.37V38Z"/><path class="cls-1" d="M182.91,48a11.19,11.19,0,0,0,3.7.7c2,0,2.94-.63,2.94-1.47s-.79-1.31-2.81-1.8c-2.78-.65-4.08-1.62-4.08-2.8,0-1.6,2-2.9,5.28-2.9a10.24,10.24,0,0,1,3.73.61L191,41.59a8.4,8.4,0,0,0-3.13-.59c-1.64,0-2.53.61-2.53,1.35s.89,1.19,2.88,1.7c2.62.63,4,1.49,4,3,0,1.76-2.12,3-5.69,3a12.65,12.65,0,0,1-4.3-.7Z"/></svg>